<svg width="104" height="94" viewBox="0 0 104 94" fill="none" xmlns="http://www.w3.org/2000/svg">
<path d="M94.3687 9.47182C88.379 3.48347 80.4152 0.184814 71.9429 0.184814H71.9405C64.587 0.185607 57.6225 2.67306 51.9932 7.24363C39.4747 -2.91342 21.1386 -2.04824 9.61227 9.47182C-2.70663 21.7962 -2.75329 41.8154 9.4736 54.1937C9.51481 54.2452 9.5576 54.2935 9.60435 54.3403L46.3661 91.0919C47.9192 92.6411 49.9557 93.4161 51.9938 93.4161C54.0319 93.4161 56.0684 92.6403 57.6168 91.0903C59.1208 89.5847 59.9488 87.5847 59.9488 85.457C59.9488 85.1376 59.9235 84.823 59.8862 84.5116C60.2008 84.5488 60.517 84.5742 60.8339 84.5742C62.8696 84.5742 64.9053 83.7992 66.4513 82.2509C67.9545 80.7493 68.7833 78.7524 68.7849 76.6279C68.7849 76.3101 68.7612 75.994 68.7223 75.6817C69.0345 75.719 69.3491 75.7443 69.6677 75.7443H69.6724C71.7937 75.7443 73.7906 74.9163 75.2922 73.4147C77.0822 71.6207 77.8326 69.1785 77.553 66.8409C77.8676 66.8782 78.1862 66.9035 78.5087 66.9035C80.6354 66.9035 82.6332 66.0755 84.1363 64.5739V64.5731L94.376 54.3422C94.4203 54.2995 94.4599 54.2527 94.4988 54.2059C100.406 48.2304 103.658 40.3181 103.658 31.9079C103.661 23.4323 100.361 15.4645 94.3687 9.47189L94.3687 9.47182ZM75.2939 62.1619L57.1262 43.9928C56.4606 43.3272 55.3821 43.3272 54.7165 43.9928C54.0509 44.6576 54.0509 45.7369 54.7165 46.4026L72.8848 64.5717C74.6558 66.3451 74.6558 69.2303 72.8848 71.0037C72.0258 71.8626 70.8855 72.3349 69.6748 72.3349H69.6724C68.4592 72.3349 67.3174 71.8603 66.4575 70.9989H66.4551L48.2874 52.8329C47.6218 52.1672 46.5433 52.1672 45.8777 52.8329C45.2121 53.4977 45.2121 54.577 45.8777 55.2426L64.0446 73.4095C64.9043 74.2708 65.3774 75.4119 65.3774 76.6266C65.3766 77.8398 64.9028 78.9815 64.0414 79.8415C62.2735 81.6117 59.3891 81.6101 57.6149 79.8391L39.4505 61.6746C38.7848 61.009 37.7064 61.009 37.0407 61.6746C36.3751 62.3395 36.3751 63.4188 37.0407 64.0844L55.209 82.2527C56.0664 83.1085 56.5395 84.2472 56.5418 85.4596C56.5418 86.6752 56.068 87.8203 55.2074 88.6816C53.4364 90.4535 50.5512 90.4535 48.7746 88.6808L12.1528 52.0692C12.1132 52.02 12.0712 51.9725 12.0268 51.9273C0.984516 40.8891 0.983095 22.9248 12.0213 11.8813C22.1792 1.72729 38.2507 0.874681 49.4079 9.58009C47.9688 11.0191 29.9963 28.9887 26.913 32.0729C24.7672 34.2163 24.9827 37.3131 27.4495 39.7831C30.6911 43.0288 38.1565 45.1675 43.8817 39.4503L52.4969 30.8305C55.5864 33.6072 58.8274 35.3653 61.9883 36.0017L81.7225 55.732C83.4943 57.5078 83.4959 60.3922 81.7257 62.1616C80.8667 63.0229 79.724 63.4952 78.5077 63.4952C77.293 63.4936 76.1511 63.0205 75.292 62.1623L75.2939 62.1619ZM91.9568 51.9272C91.9148 51.9692 91.876 52.0135 91.8387 52.0587L86.3338 57.5588C86.0612 56.0073 85.3306 54.5176 84.1348 53.3201L66.8698 36.0573C69.5323 35.57 72.0285 34.2261 74.2187 32.031C74.8844 31.3654 74.8836 30.2869 74.218 29.6213C73.5507 28.9557 72.4731 28.9581 71.8074 29.6237C69.297 32.1381 66.4443 33.2031 63.3365 32.7838C60.2208 32.367 56.8783 30.4501 53.6722 27.2448C53.0327 26.6053 51.9011 26.6053 51.2624 27.2448L41.4746 37.0381C37.3953 41.1119 32.1344 39.6452 29.8626 37.3709C29.0813 36.588 28.3531 35.4525 29.3254 34.4794C32.537 31.2653 51.9217 11.8852 51.9217 11.8852C57.2657 6.53724 64.3761 3.59256 71.9388 3.59094H71.9412C79.5022 3.59094 86.6126 6.53399 91.9583 11.8795C97.3062 17.229 100.252 24.3402 100.252 31.9037C100.252 39.4697 97.3056 46.58 91.956 51.9271L91.9568 51.9272Z" fill="#58769E"/>
</svg>
